<?xml version="1.0" encoding="utf-8"?><svg xmlns="http://www.w3.org/2000/svg" xmlns:xlink="http://www.w3.org/1999/xlink"><symbol viewBox="0 0 22.07 21.21" id="icon__beard"><path d="M21.81 0h-.1c-1 3.3-1.25 7.32-4 8.85-.51-1.44-1.76-2.1-3.19-2.73A9.47 9.47 0 0 0 11.68 5a.94.94 0 0 0-.64.13.93.93 0 0 0-.65-.13 9.46 9.46 0 0 0-2.83 1.12c-1.43.63-2.68 1.29-3.19 2.73C1.61 7.32 1.35 3.3.36 0h-.1A6.29 6.29 0 0 0 0 1a110.51 110.51 0 0 0 .82 12.22c.53 2.7 2.61 4.64 4.63 5.92C6.86 20 9.1 21.21 11 21.21s4.2-1.21 5.62-2.07c2-1.27 4.1-3.22 4.63-5.92A110.26 110.26 0 0 0 22.07 1a6.1 6.1 0 0 0-.26-1zm-6 12a1.79 1.79 0 0 1-1.44 1.49c-1.28.07-1.93-1.89-3.37-1.88s-2.09 1.95-3.37 1.88A1.79 1.79 0 0 1 6.22 12a3.24 3.24 0 0 1 .72-2.42c.47-.46 1.21-.4 2-.51A3.7 3.7 0 0 0 11 8.26a3.7 3.7 0 0 0 2.08.84c.8.12 1.53.06 2 .51a3.24 3.24 0 0 1 .76 2.39z"/></symbol><symbol viewBox="0 0 16 16" id="icon__join"><path d="M16 1v14a1 1 0 0 1-1 1H8a1 1 0 0 1 0-2h6V2H8a1 1 0 0 1 0-2h7a1 1 0 0 1 1 1zM0 8a1 1 0 0 1 1-1h9a1 1 0 0 1 0 2H1a1 1 0 0 1-1-1zm9 1V7h2v2H9zm-2 3l4-4-4-4v8z"/></symbol><symbol viewBox="0 0 14.969 15" id="icon__login"><path d="M6.837.23a1.576 1.576 0 0 0-.721.27 1.633 1.633 0 0 0-.786.04 1.839 1.839 0 0 0-1.18 1.62c-.04.4-.05 1.51-.023 2.1.08.35-.2.35-.2.35-.5-.03-.278 1.52-.278 1.52a.821.821 0 0 0 .722.87 3.189 3.189 0 0 0 1.286 1.52s0 .62.018 1.07c-.076-.03.26 1.17-2.062 1.51s-2.766 1.07-3.2 1.48-.42 2.41-.42 2.41l14.976.01s-.112-2-.549-2.42-.915-1.15-3.236-1.48c-2.257-.33-1.886-1.51-1.9-1.58 0-.18.028-.94.028-.94a3.98 3.98 0 0 0 1.145-1.61 1.331 1.331 0 0 0 .866-.8s.165-1.57-.364-1.56c0 0-.251.08-.171-.27a9.536 9.536 0 0 0 .013-1.86c-.04-.4.021-1.53-.821-1.68a4.069 4.069 0 0 0-.931-.04C8.768.72 8.434 0 7.912 0z"/></symbol><symbol viewBox="0 0 44.98 12.9" id="icon__mustache"><path d="M22.49 8.24a10.48 10.48 0 0 0 8.78 4.65C38.43 13.17 45 7.67 45 5.61 42.22 8.1 37.61 8.33 35 7.3c-3.73-1.5-3.07-4.49-5.83-6.44a5.14 5.14 0 0 0-5.69 0 5.19 5.19 0 0 0-1 .81 5.12 5.12 0 0 0-1-.81 5.14 5.14 0 0 0-5.69 0C13 2.81 13.71 5.79 9.93 7.3c-2.56 1-7.17.8-9.93-1.7 0 2.06 6.55 7.56 13.71 7.28a10.47 10.47 0 0 0 8.78-4.65z"/></symbol><symbol viewBox="0 0 15 17" id="icon__password"><path d="M13 5.45A5.5 5.5 0 0 0 7.385 0a5.364 5.364 0 0 0-5.453 5.45h-.63A1 1 0 0 0 .044 6.53v9.05A1.05 1.05 0 0 0 1.183 17h12.568a1.389 1.389 0 0 0 1.247-1.42V6.97a1.341 1.341 0 0 0-1.247-1.53zm-1.187-.01a4.284 4.284 0 0 0-8.564 0h8.564zM7.168 7.47A2.011 2.011 0 0 1 9.13 9.53a2.067 2.067 0 0 1-1.263 1.92c-.1.04.661 3.54.661 3.54l-2.64.02a20.757 20.757 0 0 0 .647-3.54 2.041 2.041 0 0 1-1.328-1.94 2.011 2.011 0 0 1 1.965-2.06z"/></symbol><symbol viewBox="0 0 21 20" id="icon__scissors"><path d="M8 4a4 4 0 1 0-4 4 2.94 2.94 0 0 0 1.6-.4L8 10l-2.4 2.4A2.93 2.93 0 0 0 4 12a4 4 0 1 0 4 4 2.94 2.94 0 0 0-.4-1.6L10 12l7 7h4L7.6 5.6A2.94 2.94 0 0 0 8 4zM4 6a2 2 0 1 1 2-2 2 2 0 0 1-2 2zm0 12a2 2 0 1 1 2-2 2 2 0 0 1-2 2zm6-8.5a.5.5 0 1 1-.5.5.47.47 0 0 1 .5-.5zM21 1h-4l-6 6 2 2 8-8z"/></symbol><symbol viewBox="0 0 51.48 49.48" id="img__beard--admiral"><path d="M50.88 0h-.24c-2.31 7.69-2.93 17.07-9.36 20.64-1.19-3.35-4.11-4.89-7.44-6.36-2.12-.93-4.55-2.56-6.6-2.64a2.19 2.19 0 0 0-1.5.32 2.19 2.19 0 0 0-1.5-.32c-2.05.08-4.48 1.71-6.6 2.64-3.33 1.47-6.25 3-7.44 6.36C3.76 17.07 3.15 7.69.84 0H.6A14.55 14.55 0 0 0 0 2.4c0 1.92.54 21.46 1.92 28.44 1.24 6.29 6.08 10.83 10.8 13.8 3.29 2.07 8.51 4.84 13 4.84s9.73-2.77 13-4.84c4.72-3 9.56-7.51 10.8-13.8 1.38-7 1.92-26.52 1.92-28.44a14.54 14.54 0 0 0-.56-2.4zM37 28.06c-.25 1.55-1.66 3.39-3.36 3.48-3 .17-4.51-4.42-7.86-4.38s-4.88 4.55-7.86 4.38c-1.7-.1-3.12-1.93-3.36-3.48a7.59 7.59 0 0 1 1.68-5.64c1.1-1.07 2.82-.93 4.68-1.2a8.6 8.6 0 0 0 4.86-1.95 8.63 8.63 0 0 0 4.86 1.95c1.86.27 3.58.13 4.68 1.2A7.58 7.58 0 0 1 37 28.06z"/></symbol><symbol viewBox="0 0 57 97.68" id="img__beard--boyar"><path d="M51.12 15.24C50.73 9.79 50.51 4.39 48.6 0c-.76 0-1.53 7.31-2.28 10.92-1.48 7.14-3.71 8.28-4.44 8.28-.88-3.86-4.38-4.2-7.8-5.88a11.1 11.1 0 0 0-3.6-1.2 14.58 14.58 0 0 0-2 .12 14.4 14.4 0 0 0-2-.12 11.12 11.12 0 0 0-3.6 1.2c-3.42 1.64-6.94 2-7.8 5.88-.72 0-3-1.14-4.44-8.28C9.93 7.31 9.16 0 8.4 0 6.49 4.39 6.27 9.79 5.88 15.24 5 38.78 0 51.53 0 62.4c0 26.07 11.71 35.28 28.5 35.28S57 88.47 57 62.4c0-10.87-5-23.62-5.88-47.16zM34.44 25c-2.79 1.17-5.35-.71-5.88-.72h-.12c-.53 0-3.09 1.89-5.88.72-.79-3.58 2.4-4 5.94-3.9 3.5-.18 6.73.28 5.94 3.9z"/></symbol><symbol viewBox="0 0 57.68 68.64" id="img__beard--lumberjack"><path d="M51.6 22.2c.12-1.7.47-3.51.72-5.4.68-5.43 1.6-11.67-.12-16.8H52c-1.36 3.74-1.3 8.35-2.2 12.36a19.72 19.72 0 0 1-3.24 7.56c-.53.69-1.06 1.54-1.92 1.8-.64-3.92-4.28-4.94-7.64-6.36-2.13-.89-4-2-6.12-2.16a10.78 10.78 0 0 0-2 .23 10.62 10.62 0 0 0-2-.23c-2.15.14-4 1.27-6.12 2.16-3.4 1.42-7 2.44-7.68 6.36-.86-.25-1.39-1.11-1.92-1.8a19.72 19.72 0 0 1-3.24-7.56C7 8.35 7 3.74 5.72 0h-.24c-1.72 5.13-.83 11.37-.12 16.8.25 1.89.6 3.7.72 5.4.79 11.05-7 23.12-6 28.92.93 7.53 8.4 9.4 14.16 12.36 4.35 2.24 8.31 5 13.32 5.16h2.56c5-.21 9-2.92 13.32-5.16 5.76-3 13.23-4.83 14.16-12.36.95-5.8-6.79-17.87-6-28.92zm-22.76 3.75a35.92 35.92 0 0 1-7.16-.5c.66-2.05 4-1.56 7.08-1.56h.16c3 0 6.42-.49 7.08 1.56a36 36 0 0 1-7.16.5z"/></symbol><symbol viewBox="0 0 62.4 78.49" id="img__beard--polar-explorer"><path d="M62.4 42c0-5.21-2.37-7.78-3.6-10a56 56 0 0 1-4.2-17.6C54.53 9.49 52.91 2 51.72 0c-.86 0-1.52 7.78-2.28 11.64-1.43 7-3.77 8.93-4.44 9-.76-2.81-4.11-7.36-13.68-7.72h-.25c-9.56.36-12.92 4.92-13.67 7.72-.67-.07-3-2-4.44-9C12.2 7.78 11.54 0 10.68 0 9.49 2 7.87 9.49 7.8 14.4A56.06 56.06 0 0 1 3.6 32C2.37 34.23 0 36.79 0 42c0 3.74 5.2 7.2 5.64 11.4.12 1.22 0 2.35.12 3.36 2 17.48 17.87 21.73 25.44 21.73s23.44-4.24 25.44-21.73c.15-1 0-2.14.12-3.36.44-4.2 5.64-7.65 5.64-11.4zM33.24 26.76a20.63 20.63 0 0 0-4.08 0c-1.73.34-5.76 1-5.76-1.08 0-1.07 6.72-2.29 7.8-2.29s7.8 1.22 7.8 2.29c0 2.07-4 1.42-5.76 1.08z"/></symbol><symbol viewBox="0 0 44.66 104.78" id="img__beard--wiseacre"><path d="M43.39 0h-.12c-2.82 21.53-5.38 22.56-7 22.68-1.43.11-3.64-1.77-4.92-2.52a15.89 15.89 0 0 0-9.06-2.54 15.9 15.9 0 0 0-9.06 2.54c-1.28.75-3.49 2.63-4.92 2.52C6.77 22.56 4.2 21.53 1.39 0h-.12C-.8 12.21-.29 50.2 2.47 63.6c2.61 18.52 10.11 35.1 13.44 39.6.68 1 3.53 1.57 6.42 1.58s5.74-.54 6.42-1.58c3.33-4.5 10.83-21.08 13.44-39.6 2.76-13.4 3.27-51.39 1.2-63.6zM22.33 28.15a100.21 100.21 0 0 0-10.14.53c1.13-1.75 9-3.24 10.14-3.45 1.15.21 9 1.7 10.14 3.45a100.23 100.23 0 0 0-10.14-.53z"/></symbol><symbol viewBox="0 0 17.812 38.13" id="img__social--fb"><path d="M11.837 38.13H3.95V19.07H.008V12.5H3.95V8.55C3.95 3.19 6.176 0 12.496 0h5.265v6.58h-3.29c-2.461 0-2.624.91-2.624 2.63l-.01 3.29h5.961l-.7 6.57h-5.261v19.06z"/></symbol><symbol viewBox="0 0 512 512" id="img__social--inst"><path d="M480 0H32A32 32 0 0 0 0 32v448a32 32 0 0 0 32 32h448a32 32 0 0 0 32-32V32a32 32 0 0 0-32-32zM192 256s5.06-64 64-64 64 64 64 64 1.84 64-64 64-64-64-64-64zm256 192H64V224h68.53a128 128 0 1 0 246.94 0H448zm0-288h-96V64h96z"/></symbol><symbol viewBox="0 -410 2048 2048" id="img__social--vk"><path d="M1464 1182q0 108-43.5 193T1301 1516q-88 66-193.5 94T840 1638H190V149h578q180 0 263.5 12t165.5 53q85 43 126.5 115.5T1365 495q0 108-57 190.5T1147 814v8q146 29 231.5 120t85.5 240zM972 570q0-37-18.5-74T888 441q-42-16-104.5-17.5T608 422h-36v315h60q91 0 155-3t101-20q52-23 68-59.5t16-84.5zm94 606q0-71-27.5-109.5T945 1009q-45-13-124-14t-165-1h-84v371h28q162 0 232-1t129-26q60-25 82.5-66.5t22.5-95.5z"/></symbol><symbol viewBox="0 0 141.67 139.54" id="pic__clock"><path d="M71.83 21.46V1a1 1 0 0 0-2 0v20.46h1zm-26.06 6.98c.57-.35 1.15-.67 1.73-1L37.26 9.74a1 1 0 0 0-1.73 1zM10.5 34.73a1 1 0 0 0 .36 1.37l17.69 10.26c.32-.58.65-1.16 1-1.73L11.87 34.36a1 1 0 0 0-1.37.37zm95.91-26.21a1 1 0 0 0-1.37.36l-10.8 18.6c.58.32 1.16.65 1.73 1l10.8-18.6a1 1 0 0 0-.36-1.36zm25.37 27.15a1 1 0 0 0-1-1.73l-18.61 10.77c.35.57.67 1.15 1 1.73zM22.5 69.77v-1H1a1 1 0 0 0 0 2h21.53c-.01-.33-.03-.66-.03-1zm118.17-1h-21.53v2h21.53a1 1 0 0 0 0-2zm-9.87 34.68l-17.68-10.27c-.32.58-.65 1.16-1 1.73l17.68 10.27a1 1 0 0 0 1-1.73zm-120.92.42a1 1 0 1 0 1 1.73L29.5 94.84c-.35-.57-.67-1.15-1-1.73zm86.02 7.23c-.57.35-1.15.67-1.73 1l10.24 17.7a1 1 0 0 0 1.73-1zm-61.01 18.55a1 1 0 1 0 1.73 1l10.8-18.6c-.58-.32-1.16-.65-1.73-1zm34.94-11.57v20.46a1 1 0 0 0 2 0v-20.46h-1zm34.91-66.19a1.5 1.5 0 1 0-1.5-2.6L74.81 65.74a5.66 5.66 0 0 0-7.95 0L46.52 53.91a1.5 1.5 0 0 0-1.52 2.6l20.36 11.82a5.67 5.67 0 1 0 11 0zm-29.4 14.46l-.06-.08zm.39.59zm-9.78 0zm.43-.62v.07zm4.45 6.17a2.67 2.67 0 1 1 2.67-2.67 2.67 2.67 0 0 1-2.67 2.62z"/></symbol><symbol viewBox="0 0 94.16 88.62" id="pic__features--cool"><path d="M87.19 22.42q-.86 2.6-1.68 5.22a43 43 0 0 1-13 54.17 12.82 12.82 0 0 1 3.14 2.67 47.07 47.07 0 0 0 11.54-62.06zM9.52 70.34h1.34A43.06 43.06 0 0 1 66 8.38a22.28 22.28 0 0 1 2.44-3.26A47.07 47.07 0 0 0 6.23 70.48c1.13-.11 2.25-.14 3.29-.14z"/><path d="M53.45 82c.44-6.14-.87-14 .66-19.07 4.53-.08 9.56.35 13.15-.66 8.17-14.84 12-34 18.42-50.64V9C85 6 81.93 5.34 79.1 4.44h-.66c-10.6 3.43-12 16.1-14.47 27.62-15.79-4.14-32.29-.06-32.88 15.13-4.53.08-8 1.22-9.86 3.95-.57 6.7 1.57 10.7 6.58 11.86q-1.86 8-7.23 12.49c-6.4.61-15.64-1.6-19.07 2v2.63c3.15 3.86 12.85 1.18 19.07 2 6.59-4.01 8.42-12.67 11.83-19.81 4.67.37 10.86-.78 14.47.66V82.7c-7.83.5-15.45 1.21-19.07 5.92h44.72C69.27 83.33 60.05 84 53.45 82zM37.67 47.19C38.35 35.48 53 35.5 63.32 38.64c.1 4.72-.52 10.16 1.31 13.15-7.04-.85-17.07-4.4-26.96-4.6z"/></symbol><symbol viewBox="0 0 94.16 91.99" id="pic__features--expensive"><circle cx="47.08" cy="17.28" r="9.11"/><path d="M67.46 26.38H26.71a2.82 2.82 0 0 0-2.82 2.82v4.47a2.83 2.83 0 0 0 2.82 2.82h.83v45.39h-.83a2.83 2.83 0 0 0-2.82 2.82v4.47A2.83 2.83 0 0 0 26.71 92h40.75a2.83 2.83 0 0 0 2.82-2.82V84.7a2.83 2.83 0 0 0-2.82-2.82h-.83V36.49h.83a2.83 2.83 0 0 0 2.82-2.82V29.2a2.83 2.83 0 0 0-2.82-2.82zm-33.8 10.11h13.2l-13.2 13.2zM60.5 81.88H47l13.5-13.47zm0-28.72L33.66 80V64.93L60.5 38.09z"/><path d="M47.08 0a47.08 47.08 0 0 0-28.19 84.79v-.09a7.77 7.77 0 0 1 1.18-4.1 43.08 43.08 0 1 1 54 0 7.77 7.77 0 0 1 1.18 4.1v.09A47.08 47.08 0 0 0 47.08 0z"/></symbol><symbol viewBox="0 0 94.94 94.16" id="pic__features--fast"><path d="M90.28 28.39a47.21 47.21 0 0 0-8.51-13.1l-2 3.78a43.16 43.16 0 0 1 6.42 10c1.37-.23 2.73-.45 4.09-.68zM90 43.56c.09 1.16.16 2.33.16 3.52a43.08 43.08 0 0 1-43.08 43.08q-1.18 0-2.34-.07a7.49 7.49 0 0 1 .26 1.85 6.59 6.59 0 0 1-.4 2.15c.84 0 1.68.07 2.53.07a47 47 0 0 0 46.62-53.24A38.31 38.31 0 0 1 90 43.56zM4 47.08A43.07 43.07 0 0 1 68.65 9.79c1.08-.86 2.21-1.74 3.36-2.62a47.07 47.07 0 1 0-42.35 83.64 18.22 18.22 0 0 1-.57-4.58A43.08 43.08 0 0 1 4 47.08z"/><path d="M38.77 84.91c7.74-2.72 16.31-9.66 14.54-19.83-.9-5.14-4.48-5-7.27-9.25 14.44-12 24.21-28.66 33-46.26h-2c-7.45 5.66-21.91 17-28.42 26.43-2.6 3.78-4.59 9.31-7.27 13.88-4.54 7.75-15.12 21.23-6.61 31.06-1.38 4.62-1.2 12.39 4 12.56 3.26-1.73-1.36-4.61.03-8.59zm8.31-38.83a2.58 2.58 0 1 1-2.58 2.58 2.58 2.58 0 0 1 2.58-2.58zM36.79 75c-1.86-9 7-17 11.9-9.25.25 7.41-6.19 15.76-11.9 9.25z"/><path d="M56 51.2c14-5.2 30.58-7.75 39-18.5-9.41 1.38-18.12 3.47-27.76 4.63C65.05 43.56 60.16 47 56 51.2zM12.34 40c-4.23 12.22 8.42 16 21.8 13.85 3.78-4.81 5.85-10 2-15.86-4.91-7.47-20.92-6.38-23.8 2.01zm5.29 7.27C12.5 36.4 30.51 36.17 32.16 42c2.18 7.58-9.1 8-14.54 5.24z"/></symbol></svg>