<svg xmlns="http://www.w3.org/2000/svg" viewBox="0 0 84.18 84.18"><defs><style>.cls-1{fill:#ed1c24;}</style></defs><title>Ресурс 1</title><g id="Слой_2" data-name="Слой 2"><g id="Layer_1" data-name="Layer 1"><path class="cls-1" d="M52,77.6c.44-6.14-.87-14,.66-19.07,4.53-.08,9.56.35,13.15-.66,8.17-14.84,12-34,18.42-50.64V4.6C83.5,1.55,80.43.9,77.6,0h-.66C66.35,3.43,65,16.1,62.48,27.62c-15.79-4.14-32.3-.06-32.88,15.13-4.53.08-8,1.22-9.86,3.95-.57,6.71,1.57,10.71,6.58,11.84q-1.86,8-7.23,12.49c-6.4.61-15.64-1.6-19.07,2v2.63c3.15,3.86,12.85,1.18,19.07,2C25.67,73.68,27.53,65,30.91,57.88c4.67.37,10.86-.78,14.47.66V78.26c-7.83.5-15.45,1.21-19.07,5.92H71C67.77,78.89,58.55,79.56,52,77.6ZM36.17,42.75C36.85,31,51.54,31.06,61.82,34.2c.1,4.72-.52,10.16,1.31,13.15C56.09,46.5,46.06,43,36.17,42.75Z"/></g></g></svg>